<svg width="22" height="28" viewBox="0 0 22 28" fill="none" xmlns="http://www.w3.org/2000/svg">
<path d="M21.6666 8.66666C21.6666 9.40304 21.0696 9.99999 20.3333 9.99999H14.9999V26C14.9999 26.7364 14.403 27.3333 13.6666 27.3333C12.9302 27.3333 12.3333 26.7364 12.3333 26V20.6667C12.3333 19.9303 11.7363 19.3333 10.9999 19.3333C10.2635 19.3333 9.66659 19.9303 9.66659 20.6667V26C9.66659 26.7364 9.06963 27.3333 8.33325 27.3333C7.59687 27.3333 6.99992 26.7364 6.99992 26V9.99999H1.66658C0.930205 9.99999 0.333252 9.40304 0.333252 8.66666C0.333252 7.93028 0.930206 7.33332 1.66658 7.33332H20.3333C21.0696 7.33332 21.6666 7.93028 21.6666 8.66666ZM10.9999 0.666656C11.7072 0.666656 12.3854 0.947608 12.8855 1.4477C13.3856 1.9478 13.6666 2.62608 13.6666 3.33332C13.6666 4.04057 13.3856 4.71884 12.8855 5.21894C12.3854 5.71904 11.7072 5.99999 10.9999 5.99999C10.2927 5.99999 9.6144 5.71904 9.1143 5.21894C8.6142 4.71884 8.33325 4.04057 8.33325 3.33332C8.33325 1.85332 9.51992 0.666656 10.9999 0.666656Z" fill="#aa2682"/>
</svg>
