<svg width="30" height="30" viewBox="0 0 30 30" fill="none" xmlns="http://www.w3.org/2000/svg">
<path fill-rule="evenodd" clip-rule="evenodd" d="M10.9999 1.66668C10.9999 2.0203 10.8594 2.35944 10.6094 2.60949C10.3593 2.85953 10.0202 3.00001 9.66659 3.00001C9.31296 3.00001 8.97383 2.85953 8.72378 2.60949C8.47373 2.35944 8.33325 2.0203 8.33325 1.66668C8.33325 1.31305 8.47373 0.973916 8.72378 0.723868C8.97383 0.473819 9.31296 0.333344 9.66659 0.333344C10.0202 0.333344 10.3593 0.473819 10.6094 0.723868C10.8594 0.973916 10.9999 1.31305 10.9999 1.66668ZM16.3333 1.66668C16.3333 2.0203 16.1928 2.35944 15.9427 2.60949C15.6927 2.85953 15.3535 3.00001 14.9999 3.00001C14.6463 3.00001 14.3072 2.85953 14.0571 2.60949C13.8071 2.35944 13.6666 2.0203 13.6666 1.66668C13.6666 1.31305 13.8071 0.973916 14.0571 0.723868C14.3072 0.473819 14.6463 0.333344 14.9999 0.333344C15.3535 0.333344 15.6927 0.473819 15.9427 0.723868C16.1928 0.973916 16.3333 1.31305 16.3333 1.66668ZM20.3333 3.00001C20.6869 3.00001 21.026 2.85953 21.2761 2.60949C21.5261 2.35944 21.6666 2.0203 21.6666 1.66668C21.6666 1.31305 21.5261 0.973916 21.2761 0.723868C21.026 0.473819 20.6869 0.333344 20.3333 0.333344C19.9796 0.333344 19.6405 0.473819 19.3904 0.723868C19.1404 0.973916 18.9999 1.31305 18.9999 1.66668C18.9999 2.0203 19.1404 2.35944 19.3904 2.60949C19.6405 2.85953 19.9796 3.00001 20.3333 3.00001ZM10.9999 28.3333C10.9999 28.687 10.8594 29.0261 10.6094 29.2762C10.3593 29.5262 10.0202 29.6667 9.66659 29.6667C9.31296 29.6667 8.97383 29.5262 8.72378 29.2762C8.47373 29.0261 8.33325 28.687 8.33325 28.3333C8.33325 27.9797 8.47373 27.6406 8.72378 27.3905C8.97383 27.1405 9.31296 27 9.66659 27C10.0202 27 10.3593 27.1405 10.6094 27.3905C10.8594 27.6406 10.9999 27.9797 10.9999 28.3333ZM16.3333 28.3333C16.3333 28.687 16.1928 29.0261 15.9427 29.2762C15.6927 29.5262 15.3535 29.6667 14.9999 29.6667C14.6463 29.6667 14.3072 29.5262 14.0571 29.2762C13.8071 29.0261 13.6666 28.687 13.6666 28.3333C13.6666 27.9797 13.8071 27.6406 14.0571 27.3905C14.3072 27.1405 14.6463 27 14.9999 27C15.3535 27 15.6927 27.1405 15.9427 27.3905C16.1928 27.6406 16.3333 27.9797 16.3333 28.3333ZM20.3333 29.6667C20.6869 29.6667 21.026 29.5262 21.2761 29.2762C21.5261 29.0261 21.6666 28.687 21.6666 28.3333C21.6666 27.9797 21.5261 27.6406 21.2761 27.3905C21.026 27.1405 20.6869 27 20.3333 27C19.9796 27 19.6405 27.1405 19.3904 27.3905C19.1404 27.6406 18.9999 27.9797 18.9999 28.3333C18.9999 28.687 19.1404 29.0261 19.3904 29.2762C19.6405 29.5262 19.9796 29.6667 20.3333 29.6667ZM29.6666 20.3333C29.6666 19.9797 29.5261 19.6406 29.2761 19.3905C29.026 19.1405 28.6869 19 28.3333 19C27.9796 19 27.6405 19.1405 27.3904 19.3905C27.1404 19.6406 26.9999 19.9797 26.9999 20.3333C26.9999 20.687 27.1404 21.0261 27.3904 21.2762C27.6405 21.5262 27.9796 21.6667 28.3333 21.6667C28.6869 21.6667 29.026 21.5262 29.2761 21.2762C29.5261 21.0261 29.6666 20.687 29.6666 20.3333ZM29.6666 15C29.6666 14.6464 29.5261 14.3073 29.2761 14.0572C29.026 13.8072 28.6869 13.6667 28.3333 13.6667C27.9796 13.6667 27.6405 13.8072 27.3904 14.0572C27.1404 14.3073 26.9999 14.6464 26.9999 15C26.9999 15.3536 27.1404 15.6928 27.3904 15.9428C27.6405 16.1929 27.9796 16.3333 28.3333 16.3333C28.6869 16.3333 29.026 16.1929 29.2761 15.9428C29.5261 15.6928 29.6666 15.3536 29.6666 15ZM28.3333 8.33334C28.6869 8.33334 29.026 8.47382 29.2761 8.72387C29.5261 8.97392 29.6666 9.31306 29.6666 9.66668C29.6666 10.0203 29.5261 10.3594 29.2761 10.6095C29.026 10.8595 28.6869 11 28.3333 11C27.9796 11 27.6405 10.8595 27.3904 10.6095C27.1404 10.3594 26.9999 10.0203 26.9999 9.66668C26.9999 9.31306 27.1404 8.97392 27.3904 8.72387C27.6405 8.47382 27.9796 8.33334 28.3333 8.33334ZM1.66659 19C2.02021 19 2.35935 19.1405 2.60939 19.3905C2.85944 19.6406 2.99992 19.9797 2.99992 20.3333C2.99992 20.687 2.85944 21.0261 2.60939 21.2762C2.35935 21.5262 2.02021 21.6667 1.66659 21.6667C1.31296 21.6667 0.973825 21.5262 0.723776 21.2762C0.473728 21.0261 0.333252 20.687 0.333252 20.3333C0.333252 19.9797 0.473728 19.6406 0.723776 19.3905C0.973825 19.1405 1.31296 19 1.66659 19ZM1.66659 13.6667C2.02021 13.6667 2.35935 13.8072 2.60939 14.0572C2.85944 14.3073 2.99992 14.6464 2.99992 15C2.99992 15.3536 2.85944 15.6928 2.60939 15.9428C2.35935 16.1929 2.02021 16.3333 1.66659 16.3333C1.31296 16.3333 0.973825 16.1929 0.723776 15.9428C0.473728 15.6928 0.333252 15.3536 0.333252 15C0.333252 14.6464 0.473728 14.3073 0.723776 14.0572C0.973825 13.8072 1.31296 13.6667 1.66659 13.6667ZM2.99992 9.66668C2.99992 9.31306 2.85944 8.97392 2.60939 8.72387C2.35935 8.47382 2.02021 8.33334 1.66659 8.33334C1.31296 8.33334 0.973825 8.47382 0.723776 8.72387C0.473728 8.97392 0.333252 9.31306 0.333252 9.66668C0.333252 10.0203 0.473728 10.3594 0.723776 10.6095C0.973825 10.8595 1.31296 11 1.66659 11C2.02021 11 2.35935 10.8595 2.60939 10.6095C2.85944 10.3594 2.99992 10.0203 2.99992 9.66668ZM21.6666 7.00001H8.33325C7.97963 7.00001 7.64049 7.14049 7.39044 7.39053C7.14039 7.64058 6.99992 7.97972 6.99992 8.33334V21.6667C6.99992 22.0203 7.14039 22.3594 7.39044 22.6095C7.64049 22.8595 7.97963 23 8.33325 23H21.6666C22.0202 23 22.3593 22.8595 22.6094 22.6095C22.8594 22.3594 22.9999 22.0203 22.9999 21.6667V8.33334C22.9999 7.97972 22.8594 7.64058 22.6094 7.39053C22.3593 7.14049 22.0202 7.00001 21.6666 7.00001ZM8.33325 4.33334C7.27239 4.33334 6.25497 4.75477 5.50483 5.50492C4.75468 6.25506 4.33325 7.27248 4.33325 8.33334V21.6667C4.33325 22.7275 4.75468 23.745 5.50483 24.4951C6.25497 25.2453 7.27239 25.6667 8.33325 25.6667H21.6666C22.7275 25.6667 23.7449 25.2453 24.495 24.4951C25.2452 23.745 25.6666 22.7275 25.6666 21.6667V8.33334C25.6666 7.27248 25.2452 6.25506 24.495 5.50492C23.7449 4.75477 22.7275 4.33334 21.6666 4.33334H8.33325ZM17.6666 12.3333H12.3333V17.6667H17.6666V12.3333ZM10.9999 9.66668C10.2635 9.66668 9.66659 10.2636 9.66659 11V19C9.66659 19.7364 10.2635 20.3333 10.9999 20.3333H18.9999C19.7363 20.3333 20.3333 19.7364 20.3333 19V11C20.3333 10.2636 19.7363 9.66668 18.9999 9.66668H10.9999Z" fill="#aa2682"/>
</svg>
