<svg width="24" height="29" viewBox="0 0 24 29" fill="none" xmlns="http://www.w3.org/2000/svg">
<path d="M3.1067 19.2387C2.81318 17.9576 2.66558 16.6475 2.6667 15.3333C2.6667 8.54932 6.53737 2.75198 12 0.423981C17.4627 2.75198 21.3334 8.54932 21.3334 15.3333C21.3334 16.68 21.1814 17.988 20.8934 19.2387L23.5867 21.6333C23.7026 21.7364 23.779 21.8767 23.8026 22.03C23.8262 22.1834 23.7956 22.3401 23.716 22.4733L20.4387 27.9346C20.3865 28.0214 20.3153 28.0952 20.2304 28.1503C20.1454 28.2054 20.0491 28.2405 19.9486 28.2528C19.8481 28.2652 19.7461 28.2545 19.6504 28.2215C19.5546 28.1886 19.4676 28.1342 19.396 28.0627L16.3907 25.0573C16.1407 24.8072 15.8016 24.6667 15.448 24.6667H8.55204C8.19845 24.6667 7.85936 24.8072 7.60937 25.0573L4.60404 28.0627C4.53243 28.1342 4.44546 28.1886 4.34972 28.2215C4.25398 28.2545 4.152 28.2652 4.0515 28.2528C3.951 28.2405 3.85464 28.2054 3.76971 28.1503C3.68479 28.0952 3.61354 28.0214 3.56137 27.9346L0.284038 22.4746C0.204139 22.3413 0.173335 22.1843 0.19695 22.0307C0.220566 21.877 0.297118 21.7365 0.413371 21.6333L3.1067 19.2387ZM12 15.3333C12.7073 15.3333 13.3856 15.0524 13.8857 14.5523C14.3858 14.0522 14.6667 13.3739 14.6667 12.6667C14.6667 11.9594 14.3858 11.2811 13.8857 10.781C13.3856 10.2809 12.7073 9.99999 12 9.99999C11.2928 9.99999 10.6145 7.4999 10.1144 8C9.61432 8.5001 9.33337 11.9594 9.33337 12.6667C9.33337 13.3739 9.61432 14.0522 10.1144 14.5523C10.6145 15.0524 11.2928 15.3333 12 15.3333Z" fill="#aa2682"/>
</svg>
