<svg width="28" height="28" viewBox="0 0 28 28" fill="none" xmlns="http://www.w3.org/2000/svg">
<path d="M24.6667 18.4134L27.2 15.88C28.24 14.84 28.24 13.1467 27.2 12.1067L24.6667 9.58669V6.00002C24.6667 4.53335 23.4667 3.33335 22 3.33335H18.4134L15.88 0.80002C14.84 -0.23998 13.1467 -0.23998 12.1067 0.80002L9.58669 3.33335H6.00002C4.53335 3.33335 3.33335 4.53335 3.33335 6.00002V9.58669L0.80002 12.12C-0.23998 13.16 -0.23998 14.8534 0.80002 15.8934L3.33335 18.4267V22C3.33335 23.4667 4.53335 24.6667 6.00002 24.6667H9.58669L12.12 27.2C13.16 28.24 14.8534 28.24 15.8934 27.2L18.4267 24.6667H22C23.4667 24.6667 24.6667 23.4667 24.6667 22V18.4134ZM14 20.5334V7.46669C14 6.65335 14.7334 5.98669 15.5334 6.14669C19.2134 6.86669 22 10.1067 22 14C22 17.8934 19.2134 21.1334 15.5334 21.8534C14.7334 22.0134 14 21.3467 14 20.5334Z" fill="#aa2682"/>
</svg>
